<svg xmlns="http://www.w3.org/2000/svg" viewBox="0 0 306.9 42.3"><defs><linearGradient id="a" x1="181.4" x2="177.1" y1="211.2" y2="206.8" gradientUnits="userSpaceOnUse"><stop offset="0" stop-color="#8787de"/><stop offset="1" stop-color="#8787de" stop-opacity="0"/></linearGradient></defs><path fill="#fff" d="M53.2 41.1V9.3H60V41zm40.7 0h-8.6l-13.6-24v24h-6V9.3h8.5L88 33V9.2h6zm20.6-26.7q-3.8 0-5.9 3-2 2.8-2 7.9 0 10.7 8 10.7 3.3 0 8-1.7v5.6q-3.9 1.7-8.7 1.7-7 0-10.6-4.2-3.7-4.3-3.7-12.2 0-5 1.8-8.7 1.8-3.7 5.2-5.7 3.4-2 8-2t9.3 2.3l-2.2 5.5q-1.8-1-3.6-1.5t-3.6-.7zM157 25.2q0 7.9-3.9 12.1-4 4.3-11.2 4.3-7.4 0-11.3-4.3-4-4.2-4-12.2 0-8 4-12.1 4-4.2 11.3-4.2 7.3 0 11.2 4.2 4 4.2 4 12.2zm-23.2 0q0 5.3 2 8t6 2.7q8.1 0 8.1-10.7 0-10.8-8-10.8-4 0-6 2.7-2.1 2.7-2.1 8zm41.3-2h12.7v16.6q-3.1 1-5.8 1.4-2.7.4-5.6.4-7.2 0-11-4.3-3.8-4.2-3.8-12.1 0-7.8 4.4-12 4.4-4.4 12.3-4.4 4.9 0 9.4 2l-2.2 5.4q-3.5-1.8-7.3-1.8-4.3 0-7 3-2.6 3-2.6 7.9 0 5.2 2 8 2.2 2.7 6.3 2.7 2 0 4.3-.5V29h-6z"/><path fill="#f55" d="M210.8 41.1h-8.6V16.3h-7.8v-7h24.2v7h-7.8zm40.7-31.8v19.2q0 6.2-3.6 9.7-3.5 3.4-10.2 3.4-6.5 0-10-3.4-3.5-3.3-3.5-9.6V9.3h8.7V28q0 3.4 1.2 4.9 1.3 1.5 3.8 1.5 2.6 0 3.8-1.5 1.2-1.5 1.2-5V9.3zm5.7 0h11q6.6 0 9.7 1.9 3.2 2 3.2 6 0 2.7-1.4 4.6t-3.6 2.4v.2q3 .8 4.3 2.7 1.3 1.8 1.3 4.7 0 4.3-3.3 6.8-3.2 2.5-8.8 2.5h-12.4zm8.6 12.2h2.6q1.8 0 2.8-.8 1-.7 1-2.2 0-2.7-4-2.7h-2.4zm0 6.3v6.7h3q4 0 4-3.4 0-1.6-1-2.5-1.1-.8-3.2-.8zM306.3 41h-19V9.2h19v7H296v5h9.5V28H296v6h10.3z"/><path fill="#53536c" d="M21.4 11a1.2 1.2 0 0 1-1.7-.3l-5.6-8a1.2 1.2 0 0 1 .3-1.7 1.2 1.2 0 0 1 1.7.3l5.6 8a1.2 1.2 0 0 1-.3 1.6zm1.2 0a1.2 1.2 0 0 0 1.7-.3l5.5-8a1.2 1.2 0 0 0-.3-1.7 1.2 1.2 0 0 0-1.6.3l-5.6 8a1.2 1.2 0 0 0 .3 1.7z"/><path fill="#6f6f91" d="M4.5 41.6H41a3.9 3.9 0 0 0 3.9-3.9V12.8a3.9 3.9 0 0 0-3.9-4H4.5a4 4 0 0 0-3.9 4v24.8a3.9 3.9 0 0 0 4 4z"/><g fill="#afafe9" transform="translate(.6 -1) scale(.69125)"><circle cx="55.7" cy="26" r="4.3"/><circle cx="55.7" cy="39.6" r="4.3"/><path d="M10.5 56.4H43a5 5 0 0 0 5-4.9V24.2a5 5 0 0 0-5-5H10.5a5 5 0 0 0-4.9 5v27.3a5 5 0 0 0 5 5z"/></g><path fill="url(#a)" d="m181.8 202.3-10.4 9a1.3 1.3 0 0 0 1 .5h8.6a1.3 1.3 0 0 0 1.3-1.3v-7.2c0-.4-.2-.7-.4-1z" transform="translate(-442.5 -515.4) scale(2.61259)"/></svg>