<svg xmlns="http://www.w3.org/2000/svg" viewBox="0 0 306.92 42.33"><defs><linearGradient id="a" x1="181.44" x2="177.05" y1="211.17" y2="206.78" gradientUnits="userSpaceOnUse"><stop offset="0" stop-color="#8787de"/><stop offset="1" stop-color="#8787de" stop-opacity="0"/></linearGradient></defs><path fill="#fff" d="M53.22 41.13V9.26h6.76v31.88zm40.7 0h-8.6l-13.64-24.1v24.1h-6.04V9.26h8.52L88 33.14V9.25h5.91zm20.6-26.7q-3.8 0-5.9 2.88-2.1 2.85-2.1 7.98 0 10.66 8 10.66 3.36 0 8.14-1.68v5.67q-3.93 1.63-8.76 1.63-6.96 0-10.64-4.2-3.69-4.23-3.69-12.13 0-4.97 1.81-8.7 1.81-3.74 5.19-5.73 3.4-2 7.96-2 4.64 0 9.33 2.24l-2.18 5.5q-1.8-.86-3.6-1.49t-3.55-.63zm42.4 10.73q0 7.9-3.92 12.16-3.92 4.25-11.25 4.25-7.32 0-11.25-4.25-3.92-4.25-3.92-12.2 0-7.96 3.92-12.15 3.95-4.2 11.3-4.2 7.34 0 11.22 4.22 3.9 4.23 3.9 12.17zm-23.25 0q0 5.34 2.02 8.04 2.03 2.7 6.06 2.7 8.09 0 8.09-10.74 0-10.77-8.04-10.77-4.04 0-6.09 2.72-2.05 2.7-2.05 8.05zm41.36-1.92h12.65v16.52q-3.08 1-5.8 1.4-2.7.41-5.54.41-7.22 0-11.03-4.23-3.8-4.25-3.8-12.18 0-7.72 4.41-12.04 4.42-4.31 12.25-4.31 4.9 0 9.46 1.96l-2.24 5.4q-3.5-1.74-7.26-1.74-4.38 0-7.02 2.94-2.64 2.95-2.64 7.92 0 5.19 2.12 7.93 2.13 2.73 6.19 2.73 2.11 0 4.3-.44v-6.65h-6.05z"/><path fill="#f55" d="M210.8 41.13h-8.61V16.3h-7.78V9.27h24.15v7.04h-7.76zm40.69-31.87v19.19q0 6.25-3.55 9.7-3.54 3.42-10.2 3.42-6.52 0-10.03-3.33-3.5-3.34-3.5-9.6V9.28h8.66v18.7q0 3.38 1.27 4.9 1.26 1.53 3.72 1.53 2.64 0 3.82-1.5 1.2-1.53 1.2-4.97V9.27zm5.66 0h11.12q6.5 0 9.63 1.94 3.16 1.92 3.16 6 0 2.68-1.37 4.58t-3.62 2.44v.22q2.97.78 4.3 2.61 1.33 1.83 1.33 4.75 0 4.34-3.27 6.85-3.25 2.48-8.88 2.48h-12.4zm8.61 12.23h2.6q1.85 0 2.85-.76 1.02-.76 1.02-2.27 0-2.68-4.05-2.68h-2.42zm0 6.3v6.7h3.03q4.03 0 4.03-3.4 0-1.6-1.09-2.45-1.07-.85-3.11-.85zm40.52 13.35h-18.92V9.25h18.92v6.91h-10.31v5.02h9.54v6.9h-9.54v6.02h10.3z"/><path fill="#53536c" d="M21.38 10.95a1.24 1.24 0 0 1-1.66-.28l-5.6-7.95A1.24 1.24 0 0 1 14.4 1a1.24 1.24 0 0 1 1.73.27l5.53 8.02a1.24 1.24 0 0 1-.28 1.66zm1.18 0a1.24 1.24 0 0 0 1.72-.28l5.53-7.95A1.24 1.24 0 0 0 29.54 1a1.24 1.24 0 0 0-1.66.34l-5.6 7.95a1.24 1.24 0 0 0 .28 1.66z"/><path fill="#6f6f91" d="M4.51 41.57h36.5a3.87 3.87 0 0 0 3.87-3.87V12.82a3.87 3.87 0 0 0-3.87-3.94H4.51a3.94 3.94 0 0 0-3.87 3.87v24.88a3.87 3.87 0 0 0 3.87 3.94z"/><g fill="#afafe9" transform="translate(.64 -.94) scale(.69125)"><circle cx="55.7" cy="26" r="4.3"/><circle cx="55.7" cy="39.6" r="4.3"/><path d="M10.5 56.4H43a5 5 0 0 0 5-4.9V24.2a5 5 0 0 0-5-5H10.5a5 5 0 0 0-4.9 5v27.3a5 5 0 0 0 5 5z"/></g><path fill="url(#a)" d="m181.84 202.33-10.45 9.02a1.32 1.32 0 0 0 1 .48h8.6a1.32 1.32 0 0 0 1.32-1.3v-7.22c0-.4-.18-.74-.45-.98z" transform="translate(-442.49 -515.38) scale(2.61259)"/></svg>