<svg xmlns="http://www.w3.org/2000/svg" viewBox="0 0 317.5 52.92"><defs><linearGradient id="A" x1="181.437" x2="177.045" y1="211.161" y2="206.769" gradientUnits="userSpaceOnUse"><stop offset="0" stop-color="#8787de"/><stop offset="1" stop-color="#8787de" stop-opacity="0"/></linearGradient><linearGradient id="B" x1="6.87" x2="6.87" y1="133.06" y2="153.28" gradientUnits="userSpaceOnUse"><stop offset="0"/><stop offset="1" stop-color="#500"/></linearGradient></defs><path fill="#483e37" d="M20.75 2.73a4.68 4.68 0 0 0-3.04.85l-.03.03a4.82 4.82 0 0 0-1.03 6.44l.55.78H9.8a3.4 3.4 0 0 0-.05 0 7.62 7.62 0 0 0-7.21 7.21v.06 24.88-.06a7.56 7.56 0 0 0 7.26 7.4h36.5c3.8 0 7.27-3.46 7.27-7.27V18.17v.06a7.56 7.56 0 0 0-7.27-7.4h-8.97l.53-.77a4.82 4.82 0 0 0-1.02-6.45 3.4 3.4 0 0 0-.25-.17 4.81 4.81 0 0 0-6.2 1.29l-3.1 4.42-3.08-4.46-.05-.07a4.7 4.7 0 0 0-3.4-1.9zm126.34 7.99c-5.55 0-10.42 1.7-13.77 5.28-.36.38-.62.84-.93 1.26a3.4 3.4 0 0 0-1.77-3.92 24.93 24.93 0 0 0-10.8-2.58c-3.53 0-6.84.8-9.68 2.48a16.61 16.61 0 0 0-6.52 7.17v.01c-.46.94-.7 1.99-1.02 3v-8.8a3.4 3.4 0 0 0-3.4-3.4h-6.08a3.4 3.4 0 0 0-3.4 3.4v10.93L82.4 12.91a3.4 3.4 0 0 0-2.94-1.7h-8.54a3.4 3.4 0 0 0-2.83 2.84 3.4 3.4 0 0 0-2.83-2.83h-6.74a3.4 3.4 0 0 0-3.4 3.4v31.87a3.4 3.4 0 0 0 3.4 3.4h6.76a3.4 3.4 0 0 0 2.83-2.83 3.4 3.4 0 0 0 2.83 2.83h6.04a3.4 3.4 0 0 0 3.4-3.4V35.48l7.3 12.7a3.4 3.4 0 0 0 2.95 1.7h8.59a3.4 3.4 0 0 0 3.4-3.4v-7.76a17.15 17.15 0 0 0 3.38 6.23c3.16 3.6 7.88 5.37 13.2 5.37 3.6 0 7-.61 10.07-1.9a3.4 3.4 0 0 0 2.1-3.13V42.3a15.9 15.9 0 0 0 1.94 2.68c3.33 3.6 8.2 5.34 13.74 5.34s10.42-1.73 13.75-5.34a17.14 17.14 0 0 0 3.7-6.58c.76 2.5 1.93 4.7 3.58 6.56 3.27 3.62 8.09 5.36 13.56 5.36a38.1 38.1 0 0 0 12.4-1.98 3.4 3.4 0 0 0 2.34-3.23V28.59a3.4 3.4 0 0 0-3.4-3.4h-12.66a3.4 3.4 0 0 0-2.8 2.8 6.8 6.8 0 0 1 1.4-3c1.14-1.26 2.33-1.81 4.5-1.81 1.98 0 3.84.44 5.73 1.38a3.4 3.4 0 0 0 4.66-1.73l2.24-5.4a3.4 3.4 0 0 0 .24-1.18v5.4a3.4 3.4 0 0 0 3.4 3.4h4.38v21.44a3.4 3.4 0 0 0 3.4 3.4h8.6a3.4 3.4 0 0 0 3.4-3.4V25.06h4.37a3.4 3.4 0 0 0 2.26-2.27v11.2c0 4.8 1.45 9.1 4.54 12.05 3.1 2.96 7.45 4.28 12.38 4.28 5.02 0 9.44-1.35 12.56-4.38 1.55-1.5 2.7-3.33 3.45-5.38v5.93a3.4 3.4 0 0 0 3.4 3.4h12.4c4.25 0 8.02-.96 10.94-3.19a11.6 11.6 0 0 0 3.47-4.4v4.19a3.4 3.4 0 0 0 3.4 3.4h18.92a3.4 3.4 0 0 0 3.4-3.4v-7.02a3.4 3.4 0 0 0-3.4-3.4 3.4 3.4 0 0 0 2.63-2.62v-6.91a3.4 3.4 0 0 0-2.12-2.13 3.4 3.4 0 0 0 2.89-2.88v-6.91a3.4 3.4 0 0 0-3.4-3.4h-18.92a3.4 3.4 0 0 0-3.4 3.4v4.82a10.01 10.01 0 0 0-4.28-5.78c-2.99-1.84-6.75-2.44-11.41-2.44h-11.12a3.4 3.4 0 0 0-2.83 2.83 3.4 3.4 0 0 0-2.83-2.83h-8.6a3.4 3.4 0 0 0-3.4 3.4v18.66c0 1.9-.45 2.83-.48 2.87s-.03.2-1.14.2c-.94 0-.97-.11-1.12-.3-.05-.06-.48-.9-.48-2.73v-18.7a3.4 3.4 0 0 0-3.4-3.4h-8.65a3.4 3.4 0 0 0-2.83 2.83 3.4 3.4 0 0 0-2.83-2.83h-24.15a3.4 3.4 0 0 0-3.4 3.4v1.4a3.4 3.4 0 0 0-2.03-3.02 27.18 27.18 0 0 0-10.8-2.24c-5.85 0-10.96 1.7-14.63 5.28a17.29 17.29 0 0 0-4.24 7c-.78-2.67-2-5.06-3.79-7-3.3-3.6-8.17-5.32-13.72-5.32zm0 12.42c1.92 0 2.62.4 3.31 1.32.69.93 1.33 2.88 1.33 6.05 0 3.15-.64 5.1-1.33 6.01-.7.93-1.41 1.34-3.36 1.34-1.93 0-2.63-.41-3.34-1.35-.7-.94-1.34-2.87-1.34-6s.64-5.05 1.35-6c.73-.96 1.46-1.37 3.38-1.37zm-27.27.04c.75 0 1.55.13 2.43.44 1.09.38 2.17.83 3.26 1.35a3.4 3.4 0 0 0 3.76-.96 27 27 0 0 0-.8 6.45c0 2.25.3 4.32.76 6.3a3.4 3.4 0 0 0-2.4-.35c-2.95 1.04-5.34 1.5-7 1.5-1.92 0-2.61-.4-3.3-1.32-.67-.9-1.31-2.82-1.31-5.95 0-2.95.61-4.85 1.43-5.97.83-1.14 1.48-1.49 3.17-1.49zm169.43 2.85v6.14c-.27-.6-.45-1.23-.84-1.76-.28-.38-.7-.61-1.04-.94.11-.13.27-.21.36-.35a10.4 10.4 0 0 0 1.52-3.1zm-111.22 9.29a3.4 3.4 0 0 0 2.3 2.3h2.63v.19c-.29.01-.6.1-.89.1-1.93 0-2.73-.44-3.5-1.42-.21-.28-.36-.77-.54-1.17z" opacity=".75"/><path fill="none" stroke="#f2f2f2" stroke-linejoin="round" stroke-width="2.12" d="M20.51 6.07a1.24 1.24 0 0 0-.82.22 1.24 1.24 0 0 0-.27 1.73l4.33 6.15H9.81a3.94 3.94 0 0 0-3.87 3.87v24.89a3.87 3.87 0 0 0 3.87 3.94h36.5A3.87 3.87 0 0 0 50.18 43V18.11a3.87 3.87 0 0 0-3.87-3.94H30.83l4.28-6.15a1.24 1.24 0 0 0-.28-1.73 1.24 1.24 0 0 0-1.66.35l-5.3 7.53h-1.2l-5.25-7.6a1.24 1.24 0 0 0-.91-.5zm126.58 7.99c-4.9 0-8.66 1.4-11.29 4.2-2.62 2.8-3.92 6.84-3.92 12.15 0 5.3 1.3 9.37 3.92 12.2 2.62 2.84 6.37 4.26 11.25 4.26s8.63-1.42 11.25-4.25c2.61-2.84 3.92-6.9 3.92-12.17 0-5.29-1.3-9.34-3.9-12.16-2.59-2.82-6.33-4.23-11.23-4.23zm-27.27.04c-3.03 0-5.69.67-7.95 2a13.02 13.02 0 0 0-5.2 5.74 19.7 19.7 0 0 0-1.8 8.7c0 5.26 1.23 9.3 3.68 12.12 2.46 2.8 6 4.2 10.64 4.2 3.23 0 6.15-.54 8.77-1.63v-5.67c-3.19 1.12-5.9 1.68-8.14 1.68-5.33 0-8-3.55-8-10.66 0-3.41.7-6.07 2.1-7.98a6.88 6.88 0 0 1 5.9-2.87c1.17 0 2.35.2 3.56.63 1.2.42 2.4.91 3.6 1.48l2.17-5.5a21.45 21.45 0 0 0-9.33-2.24zm63.65 0c-5.22 0-9.3 1.44-12.25 4.32-2.94 2.88-4.4 6.89-4.4 12.03 0 5.3 1.26 9.35 3.79 12.19 2.54 2.82 6.22 4.23 11.03 4.23a36.51 36.51 0 0 0 11.33-1.81V28.53h-12.64v5.63h6.04v6.65a22 22 0 0 1-4.3.43c-2.7 0-4.76-.9-6.19-2.72-1.4-1.83-2.11-4.48-2.11-7.94 0-3.31.88-5.95 2.63-7.91 1.76-1.96 4.1-2.94 7.02-2.94 2.52 0 4.94.58 7.26 1.74l2.25-5.4a23.68 23.68 0 0 0-9.46-1.97zm-124.95.46v31.87h6.75V14.57zm12.42 0v31.87h6.03v-15c0-1.81-.13-4.85-.41-9.1h.2l13.86 24.1h8.59V14.57h-6.08v15.09c0 1.71.1 4.64.32 8.78h-.15L79.47 14.57zm128.76 0v7.04h7.78v24.83h8.61V21.6h7.76v-7.04zm29.81 0v19.38c0 4.17 1.17 7.37 3.5 9.6 2.33 2.22 5.67 3.33 10.02 3.33 4.45 0 7.85-1.14 10.2-3.43 2.37-2.3 3.56-5.53 3.56-9.7V14.57h-8.62v18.66c0 2.3-.4 3.95-1.2 4.97-.78 1-2.05 1.5-3.8 1.5-1.65 0-2.9-.5-3.74-1.52s-1.26-2.65-1.26-4.9v-18.7zm32.93 0v31.87h12.4c3.76 0 6.72-.83 8.88-2.48a8.16 8.16 0 0 0 3.27-6.85 7.9 7.9 0 0 0-1.33-4.75c-.89-1.22-2.32-2.1-4.3-2.62v-.22a6.12 6.12 0 0 0 3.63-2.44 7.6 7.6 0 0 0 1.37-4.57c0-2.72-1.05-4.72-3.16-6-2.1-1.3-5.3-1.94-9.64-1.94zm30.21 0v31.87h18.92v-7.02h-10.3V33.4h9.54v-6.93h-9.55v-5h10.31v-6.92zm-145.56 5.12c5.37 0 8.05 3.6 8.05 10.77s-2.7 10.75-8.1 10.75c-2.68 0-4.7-.9-6.05-2.7s-2.03-4.49-2.03-8.05.68-6.24 2.05-8.04c1.37-1.82 3.4-2.73 6.08-2.73zm123.97 1.4h2.42c2.7 0 4.05.9 4.05 2.68 0 1-.34 1.76-1.02 2.27-.67.5-1.63.76-2.86.76h-2.6zm0 12.01h2.85c1.37 0 2.4.28 3.12.85a2.91 2.91 0 0 1 1.09 2.44c0 2.27-1.35 3.4-4.03 3.4h-3.03z" opacity=".85"/><g transform="translate(64.07 -116.53)"><path fill="url(#B)" d="M-5.55 162.96V131.1H1.2v31.87z"/><path fill="url(#B)" d="M35.14 162.96h-8.59l-13.64-24.1v24.1H6.87V131.1h8.52l13.83 23.87V131.1h5.92z"/><path fill="url(#B)" d="M55.75 136.26q-3.81 0-5.9 2.87-2.1 2.86-2.1 7.98 0 10.66 8 10.66 3.36 0 8.14-1.68v5.67q-3.93 1.64-8.77 1.64-6.95 0-10.64-4.21-3.68-4.23-3.68-12.12 0-4.97 1.8-8.7 1.82-3.75 5.2-5.73 3.4-2 7.95-2 4.65 0 9.33 2.24l-2.18 5.5q-1.78-.86-3.6-1.5-1.8-.62-3.55-.62z"/><path fill="url(#B)" d="M98.15 146.98q0 7.92-3.92 12.17-3.93 4.25-11.25 4.25-7.33 0-11.25-4.25t-3.92-12.21q0-7.96 3.92-12.14 3.95-4.21 11.3-4.21 7.34 0 11.22 4.23 3.9 4.23 3.9 12.16zm-23.26 0q0 5.34 2.03 8.05 2.03 2.7 6.06 2.7 8.09 0 8.09-10.75 0-10.77-8.05-10.77-4.03 0-6.08 2.73-2.05 2.7-2.05 8.04z"/><path fill="url(#B)" d="M116.26 145.06h12.64v16.53q-3.07 1-5.8 1.4-2.7.4-5.53.4-7.22 0-11.03-4.22-3.8-4.25-3.8-12.19 0-7.71 4.4-12.03 4.43-4.32 12.26-4.32 4.9 0 9.46 1.96L126.6 138q-3.48-1.74-7.26-1.74-4.38 0-7.02 2.94-2.63 2.94-2.63 7.91 0 5.2 2.11 7.94 2.14 2.72 6.2 2.72 2.1 0 4.29-.43v-6.65h-6.04z"/></g><path fill="#ff2a2a" d="M216.09 46.43h-8.6V21.6h-7.79v-7.04h24.15v7.04h-7.76zm40.7-31.87v19.18q0 6.26-3.56 9.7-3.53 3.43-10.2 3.43-6.52 0-10.03-3.34-3.49-3.33-3.49-9.59V14.56h8.66v18.7q0 3.38 1.26 4.9 1.27 1.54 3.73 1.54 2.64 0 3.82-1.5 1.2-1.53 1.2-4.98V14.57zm5.65 0h11.12q6.5 0 9.64 1.94 3.16 1.92 3.16 6 0 2.68-1.37 4.57-1.38 1.9-3.62 2.44v.22q2.96.79 4.3 2.62 1.32 1.83 1.32 4.75 0 4.34-3.27 6.85-3.25 2.48-8.87 2.48h-12.4zm8.62 12.23h2.59q1.85 0 2.86-.76 1.02-.77 1.02-2.27 0-2.68-4.05-2.68h-2.42zm0 6.3v6.7h3.03q4.03 0 4.03-3.4 0-1.6-1.1-2.45-1.06-.85-3.1-.85zm40.51 13.34h-18.92V14.57h18.92v6.9h-10.3v5.01h9.54v6.92h-9.55v6.01h10.31z"/><path fill="#53536c" d="M26.67 16.24a1.24 1.24 0 0 1-1.66-.27l-5.6-7.95a1.24 1.24 0 0 1 .28-1.73 1.24 1.24 0 0 1 1.73.28l5.53 8.01a1.24 1.24 0 0 1-.28 1.66zm1.17 0a1.24 1.24 0 0 0 1.73-.27l5.53-7.95a1.24 1.24 0 0 0-.27-1.73 1.24 1.24 0 0 0-1.66.34l-5.6 7.95a1.24 1.24 0 0 0 .27 1.66z"/><path fill="#6f6f91" d="M9.8 46.86h36.5A3.87 3.87 0 0 0 50.17 43V18.11a3.87 3.87 0 0 0-3.87-3.94H9.8a3.94 3.94 0 0 0-3.87 3.87v24.88a3.87 3.87 0 0 0 3.87 3.94z"/><g fill="#afafe9" transform="matrix(.69125 0 0 .69125 5.93 4.35)"><circle cx="55.7" cy="26" r="4.3"/><circle cx="55.7" cy="39.6" r="4.3"/><path d="M10.5 56.4H43a5 5 0 0 0 5-4.9V24.2a5 5 0 0 0-5-5H10.5a5 5 0 0 0-4.9 5v27.3a5 5 0 0 0 5 5z"/></g><path fill="url(#A)" d="m181.84 202.33-10.45 9.02a1.32 1.32 0 0 0 1 .48h8.6a1.32 1.32 0 0 0 1.32-1.3v-7.22c0-.4-.18-.74-.45-.98z" transform="matrix(2.61258 0 0 2.61258 -437.2 -510.08)"/></svg>