<svg xmlns="http://www.w3.org/2000/svg" viewBox="0 0 320 180" width="100%" height="100%"><defs><filter id="A" x="0" y="0" width="1" height="1" color-interpolation-filters="sRGB"><feTurbulence baseFrequency="0.043341500418526788" numOctaves="4" seed="745" type="fractalNoise"/></filter></defs><linearGradient id="B" x1="183.215" x2="152.876" y1="130.059" y2="99.72" gradientUnits="userSpaceOnUse"><stop offset="0" stop-color="#8787de"/><stop offset="1" stop-color="#8787de" stop-opacity="0"/></linearGradient><path d="M0 0h80v45H0z" fill="#f55" filter="url(#A)" transform="scale(4)"/><path d="M0 0v180h40V0zm9.384 8.08H30.62v21.24H9.384zm0 35.648H30.62v21.244H9.384zm0 35.656H30.62v21.244H9.384zm0 35.648H30.62v21.244H9.384zm0 35.648H30.62v21.244H9.384zM280 0v180h40V0zm9.384 8.08h21.236v21.24h-21.236zm0 35.648h21.236v21.244h-21.236zm0 35.656h21.236v21.244h-21.236zm0 35.648h21.236v21.244h-21.236zm0 35.648h21.236v21.244h-21.236z" opacity=".5"/><path fill="#53536c" d="M156.345 62.984a3.29 3.29 0 0 1-4.386-.731l-14.804-21.018a3.29 3.29 0 0 1 .731-4.569 3.29 3.29 0 0 1 4.569.731l14.621 21.201a3.29 3.29 0 0 1-.731 4.386zm3.107 0a3.29 3.29 0 0 0 4.569-.731l14.621-21.018a3.29 3.29 0 0 0-.731-4.569 3.29 3.29 0 0 0-4.386.914l-14.804 21.018a3.29 3.29 0 0 0 .731 4.386z"/><path fill="#6f6f91" d="M111.749 143.95h96.501a10.235 10.235 0 0 0 10.235-10.235V67.918a10.235 10.235 0 0 0-10.235-10.418h-96.501a10.418 10.418 0 0 0-10.235 10.235v65.796a10.235 10.235 0 0 0 10.235 10.418z"/><g fill="#afafe9"><circle cx="203.316" cy="79.067" r="7.859"/><circle cx="203.316" cy="103.924" r="7.859"/><rect width="75.487" height="64.924" x="113.76" y="69.704" rx="8"/></g><path fill="url(#B)" d="M185.957 69.015l-72.193 62.324a9.14 9.14 0 0 0 6.945 3.29h60.399c5.362 0 8.138-3.97 8.138-7.956V75.777c0-2.742-1.279-5.117-3.107-6.762z"/></svg>