<svg xmlns="http://www.w3.org/2000/svg" width="80" height="45"><defs><filter id="A" x="0" y="0" width="1" height="1" color-interpolation-filters="sRGB"><feTurbulence baseFrequency="0.043341500418526788" numOctaves="4" seed="745" type="fractalNoise"/></filter></defs><linearGradient id="B" x1="44.7" x2="28.1" y1="53.9" y2="37.3" gradientUnits="userSpaceOnUse"><stop offset="0" stop-color="#8787de"/><stop offset="1" stop-color="#8787de" stop-opacity="0"/></linearGradient><path d="M0 0h80v45H0z" fill="#f55" filter="url(#A)"/><g transform="matrix(.539772 0 0 .539772 22.727284 5.237116)"><path fill="#53536c" d="M30 17.2a1.8 1.8 0 0 1-2.4-.4L19.5 5.3a1.8 1.8 0 0 1 .4-2.5 1.8 1.8 0 0 1 2.5.4l8 11.6a1.8 1.8 0 0 1-.4 2.4zm1.7 0a1.8 1.8 0 0 0 2.5-.4l8-11.5a1.8 1.8 0 0 0-.4-2.5 1.8 1.8 0 0 0-2.4.5l-8.1 11.5a1.8 1.8 0 0 0 .4 2.4z"/><path fill="#6f6f91" d="M5.6 61.5h52.8a5.6 5.6 0 0 0 5.6-5.6v-36a5.6 5.6 0 0 0-5.6-5.7H5.6A5.7 5.7 0 0 0 0 19.8v36a5.6 5.6 0 0 0 5.6 5.7z"/><g fill="#afafe9"><circle cx="55.7" cy="26" r="4.3"/><circle cx="55.7" cy="39.6" r="4.3"/><path d="M10.5 56.4H43a5 5 0 0 0 5-4.9V24.2a5 5 0 0 0-5-5H10.5a5 5 0 0 0-4.9 5v27.3a5 5 0 0 0 5 5z"/></g><path fill="url(#B)" d="M46.2 20.5L6.7 54.6a5 5 0 0 0 3.8 1.8H43a5 5 0 0 0 5-4.9V24.2c0-1.5-.7-2.8-1.7-3.7z"/></g></svg>