<svg xmlns="http://www.w3.org/2000/svg" viewBox="0 0 64 64"><defs><linearGradient id="a" x1="11.9" x2="7.7" y1="14.3" y2="10.1" gradientUnits="userSpaceOnUse"><stop offset="0" stop-color="#916f6f"/><stop offset="1" stop-color="#c8b7b7"/></linearGradient></defs><g opacity=".7" transform="translate(1 1) scale(3.66142)"><path fill="#483737" d="M8 4.6a.5.5 0 0 1-.7-.1l-2.1-3a.5.5 0 0 1 0-.8.5.5 0 0 1 .7.2l2.1 3a.5.5 0 0 1 0 .7zm.4 0a.5.5 0 0 0 .6-.1l2.2-3a.5.5 0 0 0-.1-.8.5.5 0 0 0-.7.2l-2.1 3a.5.5 0 0 0 0 .7z"/><path fill="#6c5353" d="M1.5 16.3h14a1.5 1.5 0 0 0 1.4-1.5V5.3a1.5 1.5 0 0 0-1.4-1.5h-14A1.5 1.5 0 0 0 0 5.2v9.6a1.5 1.5 0 0 0 1.5 1.5z"/><g fill="#ac9393"><circle cx="14.7" cy="6.9" r="1.1"/><circle cx="14.7" cy="10.5" r="1.1"/></g><rect width="10.9" height="9.4" x="1.8" y="5.5" fill="#c8b7b7" rx="1.2"/><path fill="url(#a)" d="m12.2 5.9-9.9 8.6c.3.3.6.4 1 .4h8.3a1 1 0 0 0 1.1-1v-7c0-.4-.2-.8-.4-1z"/></g></svg>