<?xml version="1.0" standalone="no"?>
<!DOCTYPE svg PUBLIC "-//W3C//DTD SVG 20010904//EN"
 "http://www.w3.org/TR/2001/REC-SVG-20010904/DTD/svg10.dtd">
<svg version="1.0" xmlns="http://www.w3.org/2000/svg"
 width="512.000000pt" height="512.000000pt" viewBox="0 0 512.000000 512.000000"
 preserveAspectRatio="xMidYMid meet">
<metadata>
Created by potrace 1.14, written by Peter Selinger 2001-2017
</metadata>
<g transform="translate(0.000000,512.000000) scale(0.100000,-0.100000)"
fill="#000000" stroke="none">
<path d="M1612 4904 c-41 -21 -68 -59 -76 -106 -6 -42 9 -84 51 -143 16 -22
88 -123 159 -225 72 -102 169 -239 215 -305 47 -66 88 -125 92 -131 5 -8 -214
-11 -806 -11 -447 0 -834 -3 -860 -7 -100 -14 -181 -57 -260 -138 -55 -57 -85
-109 -109 -193 -17 -56 -18 -156 -17 -1560 0 -1602 -1 -1547 48 -1644 28 -54
115 -147 168 -178 24 -14 72 -34 106 -45 61 -19 108 -19 2227 -19 1191 0 2179
3 2195 6 95 18 158 50 232 119 63 58 105 129 128 217 22 81 21 3028 -1 3108
-40 149 -152 264 -304 312 -64 20 -84 21 -988 21 -751 0 -922 3 -918 13 2 7
112 168 244 358 132 189 245 353 251 365 16 30 14 89 -5 128 -20 41 -61 65
-113 66 -64 1 -95 -25 -180 -145 -44 -61 -186 -263 -315 -447 l-236 -335 -64
-2 c-37 -1 -71 4 -79 10 -8 7 -105 144 -216 305 -111 161 -221 321 -245 355
-24 34 -67 98 -97 141 -30 44 -66 88 -80 99 -37 27 -106 32 -147 11z"/>
</g>
</svg>
