<svg xmlns="http://www.w3.org/2000/svg" version="1.0" viewBox="0 0 512 512"><path d="M161.2 21.6a14.3 14.3 0 0 0-7.6 10.6c-.6 4.2.9 8.4 5.1 14.3L174.6 69l21.5 30.5 9.2 13.1c.5.8-21.4 1.1-80.6 1.1-44.7 0-83.4.3-86 .7a43 43 0 0 0-26 13.8 41.4 41.4 0 0 0-10.9 19.3C.1 153.1 0 163.1.1 303.5c0 160.2-.1 154.7 4.8 164.4a59.4 59.4 0 0 0 16.8 17.8c2.4 1.4 7.2 3.4 10.6 4.5 6.1 1.9 10.8 1.9 222.7 1.9 119.1 0 217.9-.3 219.5-.6 9.5-1.8 15.8-5 23.2-11.9a43.5 43.5 0 0 0 12.8-21.7c2.2-8.1 2.1-302.8-.1-310.8a44.8 44.8 0 0 0-30.4-31.2c-6.4-2-8.4-2.1-98.8-2.1-75.1 0-92.2-.3-91.8-1.3.2-.7 11.2-16.8 24.4-35.8a1603 1603 0 0 0 25.1-36.5c1.6-3 1.4-8.9-.5-12.8-2-4.1-6.1-6.5-11.3-6.6-6.4-.1-9.5 2.5-18 14.5L277.6 80 254 113.5l-6.4.2c-3.7.1-7.1-.4-7.9-1-.8-.7-10.5-14.4-21.6-30.5l-24.5-35.5-9.7-14.1c-3-4.4-6.6-8.8-8-9.9a16 16 0 0 0-14.7-1.1z"/></svg>